<?xml version="1.0" standalone="no"?>
<!DOCTYPE svg PUBLIC "-//W3C//DTD SVG 20010904//EN"
 "http://www.w3.org/TR/2001/REC-SVG-20010904/DTD/svg10.dtd">
<svg version="1.0" xmlns="http://www.w3.org/2000/svg"
 width="1216.000000pt" height="937.000000pt" viewBox="0 0 1216.000000 937.000000"
 preserveAspectRatio="xMidYMid meet">
<metadata>
Created by potrace 1.16, written by Peter Selinger 2001-2019
</metadata>
<g transform="translate(0.000000,937.000000) scale(0.100000,-0.100000)"
fill="#000000" stroke="none">
<path d="M6312 8773 c-34 -3 -55 -9 -59 -19 -3 -7 -11 -14 -19 -14 -19 0 -84
-32 -84 -42 0 -4 -28 -8 -62 -8 -70 0 -104 -13 -78 -30 8 -5 23 -10 33 -10 9
0 17 -7 17 -15 0 -8 -7 -15 -15 -15 -8 0 -15 -4 -15 -10 0 -5 -13 -16 -30 -25
-16 -9 -30 -21 -30 -28 0 -7 -14 -24 -31 -37 -57 -46 -69 -60 -69 -79 0 -11
-9 -21 -22 -24 -13 -4 -27 -16 -33 -29 -6 -14 -21 -25 -40 -28 -19 -3 -31 -11
-31 -22 -2 -26 51 -24 73 2 27 31 53 26 53 -9 0 -54 16 -78 54 -85 22 -4 36
-13 36 -22 0 -8 8 -17 18 -20 60 -21 74 -31 79 -57 4 -21 16 -32 43 -43 27
-11 42 -26 55 -55 11 -24 25 -39 36 -39 23 0 69 -49 69 -74 0 -11 10 -30 23
-44 21 -22 21 -24 5 -36 -10 -7 -18 -19 -18 -25 0 -22 -82 -2 -105 25 -11 13
-26 24 -33 24 -7 0 -12 7 -12 15 0 8 -5 15 -11 15 -5 0 -8 4 -5 9 3 4 -6 19
-19 31 -14 13 -25 27 -25 32 0 11 -50 58 -62 58 -5 0 -34 27 -66 59 l-58 59
-79 6 c-201 16 -207 17 -201 33 3 8 6 26 6 39 0 28 23 32 64 10 15 -8 36 -12
47 -9 25 7 24 39 -1 55 -20 13 -27 52 -12 75 4 6 24 14 45 18 21 4 37 13 37
21 0 8 5 14 10 14 6 0 10 7 10 15 0 8 5 15 10 15 18 0 11 29 -10 42 -14 9 -20
24 -20 50 l0 38 -90 0 c-81 0 -90 2 -90 19 0 16 -11 19 -82 24 -107 9 -258 9
-337 1 -50 -6 -61 -10 -61 -25 0 -17 -10 -19 -119 -19 -69 0 -122 4 -126 10
-3 6 -19 10 -36 10 -16 0 -29 -4 -29 -10 0 -5 -13 -10 -29 -10 -22 0 -30 -6
-35 -25 -6 -24 -9 -25 -92 -25 -76 0 -86 -2 -91 -19 -4 -16 -18 -20 -85 -26
-60 -5 -81 -11 -86 -24 -9 -24 -28 -41 -46 -41 -9 0 -16 -4 -16 -10 0 -5 -9
-10 -20 -10 -12 0 -30 -9 -42 -20 -11 -10 -34 -22 -49 -25 -16 -4 -29 -11 -29
-16 0 -5 -12 -9 -27 -9 -34 -1 -58 -18 -67 -48 -6 -16 -15 -22 -37 -22 -41 0
-69 -17 -69 -40 0 -16 -7 -20 -39 -20 -37 0 -38 -1 -47 -42 -9 -42 -10 -43
-51 -46 -34 -2 -43 -7 -43 -21 0 -14 -10 -20 -39 -25 -40 -6 -51 -19 -51 -62
0 -21 -5 -24 -37 -24 -50 0 -59 -8 -67 -52 -6 -33 -11 -38 -44 -44 -44 -8 -52
-17 -52 -66 0 -33 -3 -38 -23 -38 -36 0 -57 -21 -64 -65 -8 -48 -19 -60 -61
-70 -31 -6 -32 -8 -32 -60 l0 -52 -39 -7 c-40 -6 -40 -6 -47 -64 -4 -31 -7
-67 -5 -79 3 -28 -12 -29 -49 -3 -26 18 -30 19 -59 4 -37 -18 -39 -26 -9 -39
20 -9 22 -16 20 -75 -4 -87 -9 -100 -37 -100 -35 0 -54 -49 -57 -150 -3 -83
-4 -85 -28 -88 -18 -2 -32 -14 -45 -39 -19 -35 -20 -60 -20 -642 0 -628 3
-751 16 -751 9 0 24 -40 21 -57 -3 -14 33 -53 48 -53 6 0 10 -27 10 -60 0 -33
4 -60 9 -60 5 0 11 -13 14 -29 5 -22 13 -31 37 -36 30 -7 30 -7 30 -71 0 -76
18 -110 67 -130 24 -11 33 -21 33 -38 0 -45 13 -86 26 -86 8 0 14 -4 14 -9 0
-5 11 -12 24 -15 20 -5 25 -14 30 -59 7 -54 24 -79 64 -91 11 -4 23 -19 27
-34 4 -19 18 -32 44 -45 27 -12 41 -26 46 -45 7 -28 37 -62 55 -62 5 0 10 -4
10 -10 0 -5 6 -10 14 -10 8 0 16 -10 20 -23 3 -13 17 -29 31 -35 14 -6 25 -16
25 -22 0 -5 9 -10 19 -10 13 0 21 -8 23 -22 2 -15 13 -24 36 -30 23 -6 37 -19
49 -42 14 -31 48 -56 75 -56 5 0 19 -11 30 -25 12 -16 29 -25 48 -25 20 0 29
-6 33 -21 3 -11 15 -23 26 -26 12 -3 21 -9 21 -14 0 -5 11 -9 25 -9 13 0 28
-6 32 -13 11 -17 59 -47 76 -47 7 0 24 -11 37 -25 17 -18 34 -25 61 -25 21 0
44 -7 53 -15 8 -8 19 -15 25 -15 6 0 19 -4 29 -9 39 -20 108 -50 130 -56 12
-4 22 -11 22 -16 0 -5 9 -9 19 -9 11 0 22 -4 25 -9 3 -4 26 -11 51 -13 25 -3
54 -12 63 -20 24 -20 111 -38 186 -38 49 0 67 -4 80 -19 13 -14 37 -19 113
-24 52 -3 100 -10 106 -16 7 -7 86 -11 225 -11 190 0 213 -2 202 -15 -19 -22
-654 -22 -696 0 -20 10 -59 15 -125 15 -88 0 -97 2 -118 24 -16 17 -38 26 -79
31 -31 4 -60 12 -63 17 -4 6 -27 13 -53 15 -25 3 -46 10 -46 14 0 5 -6 9 -14
9 -8 0 -21 6 -28 13 -7 8 -27 17 -43 21 -16 4 -33 12 -36 18 -3 5 -25 12 -48
15 -22 3 -41 10 -41 14 0 5 -13 9 -29 9 -16 0 -37 7 -46 16 -9 9 -36 19 -60
22 -25 2 -50 11 -56 18 -6 8 -25 14 -41 14 -27 0 -28 -1 -14 -16 9 -8 16 -25
16 -38 0 -33 19 -46 71 -46 29 0 51 -6 59 -15 7 -8 23 -15 37 -15 13 0 34 -11
46 -24 16 -17 36 -25 76 -28 29 -3 56 -10 60 -15 3 -6 27 -13 53 -17 57 -9 64
-16 37 -44 l-20 -22 30 0 c16 0 33 -4 36 -10 8 -13 112 -13 120 0 8 14 78 13
92 -1 6 -6 41 -14 77 -16 37 -3 69 -10 72 -14 3 -5 12 -9 21 -9 9 0 25 -8 36
-18 18 -16 51 -17 402 -17 404 0 400 0 464 47 13 10 37 18 53 18 49 0 27 25
-25 28 -26 2 -59 10 -74 17 l-28 15 35 0 c20 0 45 7 56 15 12 8 67 19 130 25
141 13 164 19 164 36 0 10 12 14 40 14 33 0 40 -3 40 -20 0 -15 7 -20 29 -20
16 0 36 7 45 15 16 17 76 21 76 5 0 -5 16 -10 35 -10 19 0 35 4 35 9 0 5 14
12 30 16 17 4 30 10 30 14 0 4 18 16 40 27 22 10 40 24 40 31 0 6 -25 14 -60
18 -61 7 -84 25 -32 25 15 0 35 9 45 20 9 11 28 20 42 20 18 0 28 7 35 25 8
21 16 25 50 25 33 0 40 3 40 19 0 10 7 21 15 25 9 3 15 0 15 -8 0 -17 42 -56
61 -56 9 0 25 11 37 25 12 14 31 25 42 25 11 0 20 4 20 9 0 5 14 12 30 16 17
4 30 10 30 15 0 5 9 12 21 15 22 7 59 40 59 53 0 4 -11 16 -23 27 -16 13 -22
27 -19 42 4 21 10 23 60 23 47 0 53 2 39 13 -13 9 -15 21 -10 50 6 37 7 39 37
33 17 -4 33 -11 34 -16 5 -15 38 -12 52 5 9 11 10 15 1 15 -7 0 -19 7 -28 16
-12 11 -13 18 -4 27 6 6 11 19 11 29 0 15 8 18 45 18 44 0 45 0 45 33 0 41 29
77 60 77 13 0 20 3 17 6 -3 4 0 16 8 28 8 11 15 31 15 43 0 18 6 23 25 23 14
0 25 5 25 10 0 6 7 10 15 10 8 0 16 7 16 15 1 8 3 20 4 25 1 6 3 26 4 45 1 28
5 35 21 35 11 0 20 -4 20 -9 0 -5 12 -11 27 -14 21 -4 34 1 52 19 l25 25 -27
23 c-22 19 -27 32 -27 70 0 45 1 46 32 46 17 0 39 -7 49 -16 16 -15 20 -15 34
-1 19 20 19 33 0 41 -11 4 -15 22 -15 71 l0 65 49 0 48 0 -5 140 -5 140 30 0
c17 0 36 -7 43 -15 7 -8 9 -15 6 -15 -4 0 -1 -6 6 -13 10 -11 15 -11 30 2 18
15 24 51 11 64 -4 4 -7 30 -8 58 -1 28 -6 54 -12 57 -12 8 -5 182 7 182 7 0
17 -23 25 -59 2 -8 13 -23 24 -35 20 -19 22 -20 38 -3 14 14 18 35 18 103 0
59 -4 87 -13 93 -19 11 -23 614 -4 633 17 17 15 53 -3 68 -8 7 -15 17 -15 23
0 6 -12 23 -27 39 -25 26 -26 29 -9 47 17 19 14 71 -5 71 -5 0 -9 7 -9 15 0 9
-7 18 -15 21 -17 7 -22 89 -5 99 5 3 -1 16 -13 28 -19 19 -30 21 -129 19 -95
-1 -110 -4 -133 -24 -14 -12 -25 -29 -25 -39 0 -10 -10 -21 -22 -25 -34 -10
-48 -29 -48 -63 0 -21 -5 -31 -15 -31 -9 0 -15 -9 -15 -25 0 -19 -5 -25 -22
-25 -13 0 -33 -3 -45 -6 -17 -5 -23 -2 -23 10 0 9 7 16 15 16 8 0 15 7 15 15
0 8 5 15 12 15 6 0 8 3 5 7 -4 3 -2 12 3 18 8 9 -2 22 -35 46 -24 19 -45 42
-45 51 0 27 -111 128 -140 128 -5 0 -10 5 -10 10 0 6 -12 15 -26 20 -17 7 -24
15 -20 25 3 8 -6 23 -22 35 -15 11 -32 24 -39 30 -7 5 -17 10 -23 10 -5 0 -10
13 -10 29 0 25 -5 31 -30 36 -16 4 -30 11 -30 16 0 5 -8 9 -18 9 -15 0 -17 6
-14 35 3 23 0 35 -8 35 -18 0 -40 26 -40 47 0 17 5 19 50 13 28 -4 56 -12 62
-18 7 -7 22 -12 35 -12 16 0 23 -6 23 -19 0 -30 48 -81 76 -81 18 0 24 -5 24
-23 0 -26 26 -51 62 -60 21 -6 27 -15 32 -51 7 -42 34 -75 113 -137 16 -12
163 -12 163 1 0 6 11 10 24 10 13 0 37 7 52 15 16 8 50 15 77 15 45 0 47 1 47
29 0 16 -6 31 -12 34 -10 4 -10 7 0 18 6 7 12 32 12 56 l0 43 51 0 c44 0 50 2
45 17 -10 24 5 204 15 197 5 -3 9 -18 9 -34 0 -22 7 -32 30 -44 28 -14 33 -13
50 2 11 9 20 22 20 29 0 7 5 13 11 13 8 0 8 4 1 13 -5 6 -13 39 -17 71 -4 33
-11 66 -15 75 -11 21 -24 53 -25 66 -1 6 -8 23 -15 39 -13 26 -12 30 8 46 31
25 28 37 -13 44 -37 7 -45 25 -20 46 21 18 19 38 -6 45 -24 8 -59 40 -59 55 0
6 -7 10 -15 10 -8 0 -15 5 -15 10 0 6 -9 10 -20 10 -14 0 -20 7 -20 21 0 22
-22 49 -39 49 -6 0 -11 5 -11 10 0 6 -9 10 -20 10 -15 0 -20 7 -20 25 0 14 -9
34 -19 44 -11 11 -32 21 -48 23 -20 2 -29 9 -31 25 -2 12 -11 25 -21 28 -9 3
-34 25 -56 50 -21 25 -44 45 -51 45 -19 0 -64 45 -64 64 0 11 -12 18 -40 22
-27 5 -40 12 -40 23 -1 24 -32 57 -65 68 -17 5 -32 18 -34 28 -5 27 -51 65
-77 65 -18 0 -24 6 -24 23 -1 23 -29 49 -67 61 -16 5 -23 15 -23 32 0 13 -4
24 -10 24 -5 0 -10 6 -10 13 0 8 -18 22 -40 33 -22 10 -40 24 -40 31 0 7 -17
15 -37 19 -21 3 -48 16 -61 27 -14 13 -44 24 -80 28 -58 7 -225 8 -320 2z
m330 -100 c32 -12 80 -36 107 -55 58 -39 796 -722 846 -782 136 -166 149 -423
31 -602 -42 -63 -195 -229 -212 -229 -7 0 -112 92 -234 205 -122 113 -238 213
-258 222 -49 23 -77 22 -129 -3 -72 -35 -104 -129 -68 -199 8 -16 117 -124
243 -241 125 -116 228 -215 230 -220 4 -10 -248 -281 -258 -277 -4 2 -109 98
-234 213 -125 116 -241 216 -259 224 -41 17 -111 9 -146 -16 -55 -41 -77 -132
-47 -192 8 -15 104 -110 213 -211 109 -101 213 -198 232 -216 l34 -33 -56 -63
c-31 -35 -90 -99 -130 -143 l-74 -79 -224 208 c-123 115 -237 217 -254 228
-65 40 -163 14 -205 -54 -23 -39 -26 -107 -6 -146 8 -15 118 -124 245 -241
127 -118 231 -217 231 -220 0 -3 -51 -58 -113 -122 -80 -83 -129 -124 -172
-146 -130 -68 -268 -81 -402 -38 -96 30 -150 66 -277 185 l-98 92 -58 -58
c-156 -158 -910 -969 -910 -979 0 -18 167 -123 295 -186 545 -265 1152 -262
1690 9 525 264 886 739 1012 1331 25 117 27 145 28 382 l2 256 178 192 c98
105 182 191 186 191 10 0 24 -45 48 -156 68 -310 68 -688 0 -998 -131 -600
-488 -1124 -1000 -1467 -119 -80 -358 -201 -502 -254 -271 -99 -618 -154 -892
-142 -869 41 -1638 533 -2020 1295 -114 228 -188 457 -232 717 -25 154 -26
543 0 700 40 250 113 476 227 706 349 705 1022 1182 1820 1290 190 26 688 9
678 -23 -2 -5 -88 -101 -191 -212 l-187 -203 -97 -7 c-299 -20 -516 -78 -768
-203 -573 -284 -965 -853 -1036 -1504 -16 -140 -6 -394 21 -537 51 -281 202
-620 353 -796 l33 -38 65 68 c71 74 788 851 853 924 l39 43 -29 25 c-94 78
-224 218 -252 270 -86 162 -88 334 -5 494 34 64 202 259 230 266 7 2 115 -92
240 -208 126 -117 239 -217 253 -222 38 -15 107 -11 141 9 61 36 88 129 57
197 -6 14 -116 123 -244 242 -140 129 -231 221 -227 228 13 22 246 266 254
266 5 0 112 -97 240 -215 254 -236 274 -249 351 -226 81 25 128 105 107 183
-12 45 -31 66 -286 302 -106 98 -193 184 -193 190 0 11 232 268 248 274 4 1
110 -92 235 -207 124 -116 241 -218 258 -227 62 -31 144 -7 192 58 26 35 27
115 1 155 -10 17 -119 124 -241 237 -123 114 -223 213 -223 220 0 7 51 64 113
127 116 118 170 155 274 185 72 20 243 13 315 -13z m-1172 -628 c0 -8 5 -15
10 -15 6 0 10 -4 10 -10 0 -5 -6 -10 -13 -10 -8 0 -26 -10 -40 -23 -25 -21
-27 -28 -27 -106 0 -74 -2 -83 -20 -88 -23 -6 -27 -23 -6 -23 7 0 19 -6 25
-14 6 -7 29 -16 50 -20 31 -5 40 -11 43 -29 2 -12 13 -26 26 -32 12 -5 22 -13
22 -17 0 -5 9 -8 20 -8 12 0 20 -7 20 -16 0 -22 21 -41 58 -49 27 -6 32 -11
32 -37 0 -34 47 -88 77 -88 20 0 44 -44 58 -105 3 -16 12 -33 18 -37 7 -4 -7
-8 -29 -8 -24 0 -47 6 -53 14 -7 8 -22 17 -35 20 -13 3 -26 16 -30 28 -3 14
-22 30 -46 41 -22 10 -40 24 -40 30 0 7 -16 25 -35 41 -19 16 -35 38 -35 48 0
10 -11 23 -24 28 -13 5 -27 14 -31 19 -3 6 -17 11 -30 11 -16 0 -25 7 -29 25
-4 16 -13 25 -25 25 -11 0 -26 7 -35 15 -17 17 -186 22 -186 5 0 -5 -11 -12
-25 -16 -14 -3 -25 -10 -25 -15 0 -16 -67 -10 -74 6 -9 24 -20 17 -38 -23 -27
-58 -27 -86 0 -90 37 -6 25 -22 -17 -22 -39 0 -40 -1 -45 -42 -4 -24 -7 -72
-9 -108 -2 -59 -4 -65 -24 -68 -28 -4 -31 -22 -4 -22 10 0 24 -6 31 -14 6 -8
28 -16 48 -18 31 -2 38 -7 41 -28 4 -30 17 -40 52 -40 27 0 39 -16 39 -51 0
-13 15 -26 44 -40 33 -15 45 -27 49 -49 4 -18 15 -31 29 -36 39 -12 78 -44 78
-65 0 -10 5 -19 10 -19 6 0 10 -13 10 -30 0 -16 -4 -30 -10 -30 -5 0 -10 -11
-10 -25 0 -28 -12 -32 -30 -10 -7 8 -25 15 -41 15 -21 0 -29 5 -29 18 0 10
-23 40 -50 66 -28 26 -57 63 -65 82 -8 19 -21 34 -30 34 -19 0 -145 117 -145
135 0 17 -48 25 -156 25 -71 0 -96 -4 -108 -16 -9 -8 -16 -20 -16 -25 0 -5
-13 -9 -30 -9 -28 0 -33 -7 -29 -36 0 -4 -4 -10 -10 -14 -7 -3 -14 -30 -18
-58 -5 -46 -9 -53 -32 -58 -51 -13 -71 -42 -71 -106 0 -55 -1 -58 -25 -58 -52
0 -60 -26 -61 -195 -1 -86 2 -155 7 -155 5 0 9 -7 9 -15 0 -8 7 -15 15 -15 8
0 15 -4 15 -9 0 -5 9 -11 20 -14 16 -4 20 -14 20 -52 0 -65 22 -103 64 -110
30 -6 34 -11 40 -45 6 -39 20 -50 61 -50 16 0 24 -6 23 -17 0 -10 4 -30 10
-45 9 -21 19 -28 49 -31 l38 -4 -42 -1 c-42 -2 -42 -2 -49 -47 -6 -41 -9 -45
-35 -45 -32 0 -59 -31 -59 -67 0 -20 -5 -23 -40 -23 -33 0 -40 -3 -40 -19 0
-11 -4 -23 -10 -26 -5 -3 -10 -19 -10 -36 0 -26 -3 -29 -31 -29 -37 0 -58 -23
-59 -62 0 -25 -4 -28 -31 -28 -22 0 -32 -5 -36 -20 -3 -11 -9 -20 -14 -20 -5
0 -9 -13 -9 -30 0 -23 -4 -30 -20 -30 -11 0 -20 -4 -20 -10 0 -5 -11 -12 -24
-16 -21 -5 -25 -13 -28 -47 -3 -41 -4 -42 -42 -47 -37 -5 -40 -8 -50 -50 -10
-40 -15 -46 -47 -54 -34 -8 -43 -19 -63 -78 -3 -10 -14 -18 -24 -18 -11 0 -25
-7 -32 -15 -7 -8 -18 -15 -24 -15 -23 0 -83 75 -95 120 -7 25 -16 52 -21 60
-4 9 -11 30 -15 48 -3 18 -11 32 -16 32 -5 0 -9 6 -9 14 0 7 -6 19 -14 25 -8
7 -13 17 -11 24 9 37 18 57 26 57 5 0 6 6 3 14 -3 8 -1 17 5 21 18 10 12 61
-9 80 -25 23 -63 13 -78 -20 -19 -42 -42 -32 -42 20 0 33 4 45 14 45 13 0 15
31 13 202 -2 154 1 202 11 205 15 6 17 159 2 168 -5 3 -10 30 -10 60 0 30 5
57 10 60 17 10 12 131 -5 145 -8 7 -15 19 -15 26 0 8 -4 14 -10 14 -6 0 -10
39 -10 97 0 94 0 96 19 79 27 -25 35 -64 17 -91 -17 -26 -5 -45 28 -45 23 0
56 27 56 47 0 7 4 13 9 13 13 0 25 102 17 145 -4 19 -11 35 -17 35 -26 0 -34
25 -31 91 4 69 4 69 33 69 24 0 29 -4 29 -24 0 -30 9 -36 36 -26 17 7 21 15
18 41 -2 18 -9 38 -14 43 -17 17 -12 86 5 86 8 0 15 -4 15 -9 0 -14 60 -25 73
-12 5 5 11 22 13 36 2 19 -2 25 -16 25 -10 0 -20 7 -24 15 -3 8 -1 15 4 15 6
0 10 11 10 24 0 41 11 56 39 56 38 0 51 17 51 67 0 40 2 43 28 44 32 1 64 12
63 22 -6 58 -2 66 44 72 24 4 43 10 42 14 -1 3 5 21 13 39 12 26 21 32 45 32
38 0 55 16 55 51 0 23 6 29 33 34 40 9 57 22 57 46 0 16 8 19 45 19 41 0 45 2
45 25 0 23 4 25 44 25 36 0 46 4 51 20 4 14 15 20 35 20 41 0 60 10 60 31 0
15 7 19 39 19 22 0 55 9 73 19 18 11 61 22 95 26 48 5 62 11 66 26 5 17 15 19
121 19 108 0 148 8 166 32 3 4 41 9 85 11 44 1 99 4 123 5 32 2 42 -2 42 -13z
m960 -1188 c0 -37 27 -67 61 -67 19 0 29 -5 29 -15 0 -9 7 -29 15 -45 13 -24
22 -30 50 -30 40 0 42 -3 46 -55 4 -48 14 -60 57 -70 20 -4 32 -13 32 -23 0
-21 49 -72 71 -72 9 0 22 -7 29 -15 7 -8 19 -15 26 -15 8 0 14 -4 14 -10 0 -5
20 -10 45 -10 25 0 45 4 45 8 0 9 97 42 124 42 9 0 15 4 11 10 -10 16 19 50
42 50 19 0 24 -7 29 -40 4 -22 10 -40 15 -40 5 0 9 -134 9 -299 0 -294 0 -299
-21 -304 -11 -3 -23 -15 -26 -26 -3 -12 -11 -21 -18 -21 -16 0 -25 -54 -25
-157 l0 -81 -30 -7 c-16 -4 -30 -13 -30 -21 0 -8 -4 -14 -9 -14 -9 0 -15 -27
-27 -122 -6 -42 -10 -48 -30 -48 -12 0 -26 5 -29 10 -3 6 -15 10 -26 10 -10 0
-19 -4 -19 -10 0 -5 -10 -10 -22 -10 -50 0 -68 -11 -68 -41 0 -34 19 -38 45
-9 22 25 70 28 61 4 -3 -9 -6 -38 -6 -65 0 -42 -3 -49 -20 -49 -11 0 -31 -10
-45 -22 -20 -17 -25 -31 -25 -70 0 -48 0 -48 -33 -48 -38 0 -57 -27 -57 -80 0
-26 -4 -30 -27 -30 -34 -1 -63 -21 -63 -45 0 -20 -27 -44 -49 -45 -21 0 -61
-40 -61 -61 0 -11 -11 -19 -36 -24 -24 -4 -38 -13 -41 -26 -3 -10 -14 -19 -24
-19 -10 0 -24 -9 -31 -20 -7 -11 -19 -20 -26 -20 -7 0 -24 -11 -38 -25 -14
-14 -36 -25 -49 -25 -18 0 -25 -5 -25 -20 0 -16 -7 -20 -35 -20 -26 0 -39 -6
-51 -25 -11 -17 -25 -25 -44 -25 -15 0 -30 -7 -33 -15 -4 -8 -31 -21 -62 -30
-33 -10 -55 -22 -55 -31 0 -10 -13 -14 -45 -14 -31 0 -47 -5 -53 -17 -8 -13
-32 -18 -108 -24 -130 -10 -162 -17 -169 -40 -6 -18 -20 -19 -226 -19 -199 0
-221 2 -237 18 -23 23 -60 31 -181 41 -71 6 -96 12 -103 24 -6 12 -22 17 -53
17 -33 0 -45 4 -45 15 0 8 -18 19 -42 27 -24 7 -49 20 -56 30 -8 11 -26 18
-45 18 -24 0 -35 6 -42 23 -8 17 -20 23 -52 25 -34 3 -43 7 -43 22 0 10 -9 21
-19 25 -11 3 -23 14 -26 25 -8 24 4 70 19 70 6 0 25 11 41 25 28 23 29 24 8
25 -20 0 -23 5 -23 39 0 37 2 39 38 46 46 8 62 21 62 50 0 14 10 26 28 34 15
8 34 17 42 21 8 4 19 23 23 43 7 29 17 40 48 54 33 14 40 23 45 55 6 36 8 38
45 38 37 0 38 1 44 44 7 42 9 44 46 50 36 6 39 9 45 46 6 39 8 40 45 40 32 0
39 4 39 19 0 11 5 23 10 26 6 3 10 17 10 30 0 18 4 22 20 18 11 -3 20 -9 20
-13 0 -14 36 -21 64 -14 23 5 26 11 24 41 -1 21 3 38 12 43 8 6 11 10 6 10 -5
0 1 11 14 25 16 17 27 22 34 15 5 -5 23 -10 38 -10 15 0 28 -3 29 -7 5 -49 34
-83 72 -83 13 0 32 -9 42 -20 22 -25 104 -50 160 -50 22 0 46 -5 53 -12 7 -7
52 -14 107 -16 88 -4 122 -17 75 -29 -11 -3 -20 -9 -20 -13 0 -5 -8 -11 -17
-13 -10 -3 15 -5 56 -6 64 -1 78 2 98 21 28 26 29 34 3 41 -35 9 -22 26 26 33
52 7 97 27 87 37 -3 4 -2 7 3 7 6 0 19 8 30 18 11 11 33 23 49 29 18 6 31 18
33 30 2 15 13 22 43 27 30 5 39 11 39 26 0 10 5 22 10 25 6 3 10 19 10 36 0
28 1 29 50 29 56 0 67 12 65 73 -1 28 -10 46 -34 70 -17 19 -29 36 -26 39 7 6
-15 50 -36 70 -8 9 -26 19 -39 23 -13 4 -33 17 -44 30 -12 12 -33 30 -48 39
-15 10 -28 27 -30 38 -2 12 -12 26 -23 32 -11 6 -22 14 -25 17 -3 3 -13 8 -22
12 -11 4 -18 17 -18 32 0 33 -17 51 -58 60 -27 6 -32 11 -32 36 0 16 -4 29
-10 29 -5 0 -10 6 -10 14 0 7 -7 19 -15 26 -8 7 -15 21 -15 31 0 15 7 19 34
19 28 0 37 -5 48 -27 10 -21 22 -29 46 -31 18 -2 32 -9 32 -16 0 -7 9 -23 20
-36 11 -13 20 -27 20 -32 0 -4 13 -8 29 -8 23 0 30 -5 33 -22 2 -16 11 -24 28
-26 64 -7 70 -11 70 -45 0 -34 28 -69 67 -81 10 -3 24 -19 30 -36 12 -33 14
-33 168 -30 85 2 101 10 109 55 6 30 11 35 34 35 32 0 52 16 52 42 0 10 5 18
10 18 6 0 10 9 10 20 0 14 7 20 24 20 37 0 56 10 56 29 0 10 7 26 15 37 17 22
20 60 5 69 -5 3 -10 17 -10 31 0 13 -5 24 -11 24 -7 0 -8 11 -4 30 6 25 3 31
-17 39 -13 5 -46 32 -75 60 -29 28 -61 51 -72 51 -23 0 -41 28 -41 64 0 22 -5
26 -29 26 -43 0 -61 10 -61 31 0 28 -29 69 -49 69 -27 0 -58 41 -55 72 2 20
-5 34 -27 52 -42 36 -38 56 11 56 35 0 40 -3 40 -23z"/>
<path d="M10065 3012 c-6 -5 -44 -15 -85 -22 -41 -8 -78 -18 -82 -24 -11 -15
-10 -64 1 -70 5 -3 7 -19 5 -36 -2 -16 1 -30 6 -30 11 0 14 -63 3 -74 -11 -11
-9 -100 2 -112 6 -6 17 -13 25 -17 8 -3 -6 -6 -32 -6 -29 -1 -52 5 -62 14 -30
31 -122 37 -446 31 -383 -7 -465 -13 -481 -32 -6 -8 -24 -14 -40 -14 -16 0
-29 -3 -29 -8 0 -4 -14 -13 -31 -21 -27 -12 -33 -12 -40 0 -5 8 -9 17 -9 22 0
4 -20 7 -45 7 -34 0 -45 4 -45 15 0 25 -45 35 -163 35 -125 -1 -186 -11 -199
-34 -6 -10 -23 -16 -47 -16 -28 0 -41 -5 -46 -17 -4 -10 -10 -170 -13 -355 -5
-374 1 -346 -69 -332 -49 10 -52 31 -54 368 -2 269 -5 309 -18 314 -9 3 -18 8
-21 11 -7 8 -40 29 -70 43 -17 9 -80 13 -197 13 -164 0 -172 -1 -195 -22 -15
-14 -37 -23 -55 -23 -25 0 -34 -6 -44 -29 l-13 -29 -18 29 c-14 23 -25 29 -52
29 -25 0 -35 5 -39 19 -7 26 -83 35 -234 27 -65 -3 -150 -7 -189 -9 -51 -1
-75 -7 -88 -19 -23 -23 -101 -25 -114 -2 -5 10 -35 19 -80 26 -96 15 -328 -1
-363 -25 -30 -21 -93 -22 -113 -1 -22 21 -178 36 -295 28 -79 -6 -94 -10 -98
-25 -4 -14 -15 -19 -37 -19 -18 0 -37 -5 -44 -12 -9 -9 -12 -144 -12 -544 l0
-533 32 -15 c17 -9 39 -16 49 -16 10 0 24 -6 31 -13 9 -9 57 -16 149 -21 163
-8 279 1 279 20 0 9 11 14 30 14 17 0 30 5 30 10 0 6 7 10 15 10 13 0 15 42
15 315 0 226 -3 315 -11 315 -8 0 -8 4 -1 13 5 6 12 21 15 32 2 11 5 -115 6
-281 1 -326 6 -394 27 -394 8 0 14 -4 14 -9 0 -5 25 -11 56 -13 31 -3 59 -10
63 -17 12 -19 349 -21 360 -3 4 8 27 16 50 19 22 3 41 10 41 14 0 5 5 9 12 9
6 0 20 7 30 17 17 15 18 15 18 -10 0 -26 2 -27 57 -27 35 0 62 -5 72 -14 12
-11 52 -16 162 -18 128 -3 147 -1 163 15 11 10 33 17 57 17 21 0 39 4 39 9 0
21 52 43 86 36 19 -3 32 -10 29 -14 -7 -13 43 -29 108 -35 32 -2 66 -11 74
-18 25 -20 239 -16 278 5 17 9 42 17 58 17 15 0 27 4 27 10 0 6 9 6 26 0 14
-6 42 -10 61 -10 20 0 44 -7 54 -16 25 -23 283 -22 308 0 10 9 32 16 49 16 21
0 36 7 44 20 14 21 43 27 53 10 3 -5 19 -10 36 -10 16 0 29 -4 29 -9 0 -4 59
-10 132 -13 87 -3 133 -9 136 -16 5 -15 128 -16 137 -2 8 13 72 13 77 -1 2 -7
62 -13 160 -16 150 -6 156 -5 174 16 14 16 30 21 66 21 41 0 47 3 50 23 2 17
10 22 31 22 15 0 27 -4 27 -8 -1 -4 7 -15 16 -25 13 -13 31 -16 74 -14 45 3
61 0 75 -15 17 -16 38 -18 206 -18 164 0 189 2 206 18 11 9 30 17 43 17 12 0
33 11 45 25 20 21 25 22 35 10 7 -8 19 -15 26 -15 8 0 14 -4 14 -9 0 -4 38
-11 85 -13 47 -3 91 -11 99 -17 9 -7 92 -12 249 -12 206 -1 238 0 252 15 12
12 36 16 96 16 43 0 79 3 79 8 0 9 45 28 86 37 25 5 33 12 38 36 4 19 12 29
24 29 25 0 48 31 44 60 -2 14 -6 55 -9 93 -4 55 -8 67 -22 67 -10 0 -27 11
-39 25 -12 14 -32 25 -44 25 -13 0 -36 7 -52 15 -33 18 -271 22 -281 5 -3 -5
-44 -10 -90 -10 -83 0 -85 1 -91 26 -7 29 1 179 11 206 4 9 15 18 26 21 24 7
25 27 0 27 -24 0 -43 23 -36 43 4 8 21 18 38 22 39 10 213 9 323 0 102 -9 194
13 194 45 0 11 7 20 15 20 8 0 15 5 15 10 0 6 7 10 15 10 23 0 34 30 22 58 -7
14 -7 26 -1 30 12 9 14 42 3 42 -5 0 -9 32 -9 70 0 62 -2 70 -19 70 -11 0 -33
17 -50 38 l-31 37 -298 3 c-355 4 -540 -7 -554 -31 -5 -10 -20 -17 -32 -17
-13 0 -44 -11 -67 -25 -66 -37 -162 -30 -130 9 8 9 19 16 27 16 23 0 65 44 68
73 2 15 -1 27 -5 27 -5 0 -9 10 -9 23 0 12 -7 30 -14 40 -14 18 -11 57 5 57
15 0 10 27 -7 41 -10 9 -14 22 -10 41 8 39 -2 58 -30 58 -13 0 -24 4 -24 8 0
23 -381 46 -405 24z m313 -210 l3 -132 -168 2 -168 3 -3 119 c-2 80 1 123 9
132 10 12 43 14 168 12 l156 -3 3 -133z m-3726 -220 c24 -10 60 -33 80 -51
l37 -32 68 34 c107 53 183 71 303 72 122 0 171 -17 233 -81 71 -74 72 -79 72
-539 l0 -410 -165 0 -165 0 -5 363 c-5 345 -6 364 -24 378 -11 8 -37 14 -58
14 -50 0 -189 -29 -205 -42 -10 -8 -13 -93 -13 -364 l0 -354 -167 2 -168 3 -2
360 -3 360 -22 19 c-20 16 -33 17 -93 12 -38 -3 -92 -12 -120 -19 l-50 -13 -3
-362 -2 -362 -170 0 -170 0 0 510 0 510 145 0 c132 0 145 -2 155 -19 5 -11 10
-29 10 -40 0 -33 14 -32 86 4 146 74 312 93 416 47z m1308 -346 c0 -348 0
-354 22 -381 l22 -28 110 6 c61 3 134 12 161 20 l50 13 5 360 5 359 159 3 c95
1 162 -1 165 -7 4 -5 6 -234 6 -508 l0 -498 -150 0 -149 0 -9 40 c-6 22 -11
42 -13 44 -2 2 -22 -8 -46 -22 -24 -13 -77 -37 -118 -52 -99 -37 -275 -47
-364 -21 -72 21 -135 77 -167 149 -24 51 -24 56 -27 450 -2 220 -1 405 2 413
4 11 38 14 171 14 l165 0 0 -354z m1785 229 l0 -120 -288 -5 c-271 -5 -290 -6
-303 -24 -19 -26 -18 -65 3 -88 14 -16 34 -18 192 -18 278 -1 350 -17 424 -99
52 -58 70 -128 65 -260 -3 -96 -6 -111 -34 -161 -34 -61 -100 -112 -167 -131
-63 -17 -636 2 -784 27 l-33 5 0 125 0 125 33 -5 c17 -3 157 -11 309 -17 316
-14 321 -14 338 52 6 22 9 47 6 54 -3 10 -62 14 -248 17 -228 4 -246 6 -296
27 -67 30 -127 97 -147 164 -19 65 -19 199 0 263 26 88 81 145 169 176 46 16
89 17 406 15 l355 -2 0 -120z m1735 -5 l0 -130 -269 0 c-250 0 -270 -1 -292
-19 -24 -19 -24 -22 -27 -234 l-3 -215 24 -28 24 -28 244 13 c134 7 255 14
269 14 l25 2 3 -122 3 -121 -28 -6 c-72 -14 -327 -29 -503 -30 -186 -1 -197 0
-240 23 -137 71 -160 141 -160 481 0 306 15 374 97 453 71 70 109 76 496 76
l337 1 0 -130z m-1100 -400 l0 -490 -167 2 -168 3 -3 357 -2 357 -68 3 -67 3
-3 128 -3 127 241 0 240 0 0 -490z"/>
<path d="M1005 2990 c-3 -5 -22 -10 -40 -10 -26 0 -43 -9 -68 -34 -34 -34 -34
-34 -15 -53 12 -12 22 -43 28 -81 9 -64 21 -85 56 -96 20 -6 59 -100 48 -118
-3 -4 0 -8 6 -8 7 0 24 -9 40 -20 27 -19 39 -60 43 -155 2 -37 14 -51 55 -60
33 -7 35 -13 35 -97 0 -16 3 -28 8 -28 4 0 11 -9 14 -21 4 -11 20 -25 36 -31
24 -8 29 -16 31 -46 2 -55 3 -60 11 -68 4 -4 7 -15 7 -24 0 -19 40 -60 58 -60
9 0 12 -53 13 -202 0 -112 2 -211 4 -221 7 -37 36 -57 81 -57 30 0 46 -5 52
-17 9 -15 31 -17 183 -17 129 -1 173 2 176 12 3 6 16 12 29 12 14 0 27 6 30
14 3 8 19 18 35 21 68 15 109 51 79 70 -6 4 -8 11 -5 16 4 5 1 9 -4 9 -6 0
-11 20 -11 44 0 25 -4 47 -9 50 -5 3 -7 19 -5 35 2 17 -1 33 -6 36 -6 3 -10
21 -10 40 0 19 -4 36 -9 40 -5 3 1 16 13 28 14 14 26 42 30 71 9 55 25 96 38
96 5 0 23 13 40 30 16 16 25 30 19 30 -14 0 -14 37 -1 45 6 3 10 15 10 26 0
11 7 19 16 19 18 0 44 23 44 40 0 6 7 13 15 16 8 4 15 12 15 20 0 10 13 14 46
14 37 0 47 -4 51 -20 3 -11 13 -20 21 -20 12 0 11 -4 -6 -16 -12 -8 -22 -22
-22 -30 0 -9 -11 -14 -33 -14 -29 0 -35 -5 -50 -38 -12 -28 -25 -40 -49 -47
-33 -10 -50 -41 -30 -54 19 -12 24 -51 8 -57 -9 -3 -15 -16 -15 -27 0 -12 -2
-32 -6 -44 -4 -13 -3 -23 2 -23 4 0 8 -26 7 -57 -1 -65 14 -111 45 -133 12 -8
21 -25 21 -38 0 -43 30 -93 60 -99 16 -3 33 -16 41 -32 23 -43 35 -51 81 -51
24 0 57 -8 73 -17 24 -13 58 -17 163 -17 117 -1 135 1 143 17 7 12 23 17 54
17 25 0 45 5 45 10 0 6 23 10 50 10 28 0 50 -4 50 -10 0 -5 6 -10 14 -10 8 0
21 -6 28 -14 10 -9 61 -16 169 -22 90 -5 154 -13 154 -19 0 -5 -11 -12 -25
-13 -14 -2 -29 -8 -34 -13 -14 -13 -306 -12 -306 1 0 6 -6 10 -14 10 -7 0 -19
7 -26 15 -7 8 -26 15 -42 15 -16 0 -31 -6 -34 -15 -5 -12 -26 -15 -99 -15 -52
0 -97 -4 -100 -10 -3 -5 -30 -11 -58 -12 -36 -1 -42 -2 -19 -5 17 -2 32 -8 32
-14 0 -13 177 -12 182 2 5 14 731 13 736 -1 5 -13 272 -13 272 -1 0 6 15 12
33 14 24 3 21 4 -15 5 -27 1 -48 7 -48 12 0 6 -48 10 -124 10 -73 0 -127 -4
-131 -10 -8 -13 -89 -13 -113 -1 -9 5 -25 12 -34 15 -12 4 -18 16 -18 36 0 30
0 30 55 30 41 0 63 -6 85 -21 28 -21 36 -22 194 -17 133 5 168 9 181 22 9 9
31 16 50 16 18 0 35 4 37 9 2 5 15 13 31 16 21 6 27 4 27 -9 0 -13 11 -16 51
-16 35 0 58 -6 76 -19 22 -18 36 -19 166 -14 78 3 145 10 148 16 4 5 27 11 51
14 38 4 46 10 55 34 9 24 17 29 45 29 37 0 48 -6 64 -35 8 -15 25 -21 62 -25
28 -3 57 -11 64 -18 19 -19 292 -17 308 3 7 8 27 15 45 15 20 0 39 8 51 21 18
20 19 42 20 390 1 203 4 372 8 376 9 10 7 61 -3 68 -6 3 -10 13 -11 23 -4 100
-20 138 -62 155 -10 3 -18 13 -18 21 0 8 -9 18 -21 21 -11 4 -18 9 -15 12 7 7
-41 33 -60 33 -8 0 -14 7 -14 15 0 21 -59 30 -200 29 -168 -1 -287 -13 -301
-30 -8 -9 -34 -14 -79 -14 -53 0 -70 4 -84 19 -13 14 -38 21 -91 26 -80 8
-276 -10 -286 -26 -3 -6 -31 -13 -61 -16 -42 -4 -64 -1 -89 12 -53 27 -99 33
-227 25 -92 -5 -124 -11 -137 -23 -9 -10 -30 -17 -46 -17 -30 0 -54 -15 -57
-35 -1 -5 -6 -10 -12 -9 -5 1 -17 2 -27 2 -9 1 -13 5 -10 9 7 6 -38 33 -56 33
-6 0 -21 10 -35 22 -22 22 -32 23 -165 23 -78 0 -258 -2 -399 -5 -197 -4 -260
-2 -270 8 -9 9 -9 15 0 24 7 7 12 27 12 46 0 24 5 35 18 38 18 5 47 54 31 54
-5 0 -9 7 -9 15 0 8 4 15 9 15 5 0 12 12 15 26 8 29 -19 64 -49 64 -8 0 -15 6
-15 13 0 28 -50 37 -198 37 -193 0 -249 -7 -255 -31 -3 -13 -14 -19 -31 -19
-14 0 -26 -4 -26 -10 0 -5 -7 -10 -15 -10 -8 0 -15 -7 -15 -15 0 -8 -4 -15
-10 -15 -5 0 -10 -23 -10 -52 0 -43 -4 -55 -27 -77 -35 -33 -63 -85 -63 -118
0 -25 -57 -93 -78 -93 -10 0 -25 54 -28 105 -2 39 -21 85 -34 85 -5 0 -10 5
-10 12 0 6 -10 22 -21 34 -12 13 -25 44 -30 70 -10 51 -21 64 -56 64 -13 0
-23 5 -23 10 0 6 -6 10 -14 10 -8 0 -21 6 -28 13 -7 8 -27 17 -43 22 -47 13
-372 18 -380 5z m405 -165 c25 -50 96 -196 159 -325 l114 -235 161 325 161
325 178 3 c122 2 177 -1 177 -8 0 -6 -26 -62 -59 -123 -32 -62 -105 -202 -161
-312 -56 -110 -141 -274 -189 -365 l-86 -165 -5 -185 -5 -185 -172 -3 -173 -2
0 180 c0 172 -1 184 -24 223 -13 23 -71 134 -128 247 -58 113 -160 311 -227
441 -66 130 -121 241 -121 248 0 8 46 11 178 9 l177 -3 45 -90z m1742 -248
c32 -16 71 -45 88 -65 58 -71 60 -85 60 -534 l0 -409 -147 3 c-139 3 -148 4
-152 23 -2 11 -7 31 -12 43 l-9 24 -43 -25 c-87 -51 -186 -79 -297 -84 -139
-7 -203 10 -271 74 -69 65 -84 110 -84 258 0 111 2 124 28 177 16 33 45 70 67
88 69 55 100 60 345 60 257 0 254 -1 239 78 -15 76 -25 78 -261 64 -109 -7
-226 -16 -260 -19 l-63 -6 0 120 0 121 33 6 c17 3 97 10 177 16 80 6 163 12
185 14 22 2 103 3 180 2 132 -1 143 -3 197 -29z m1133 9 c22 -10 57 -33 77
-53 l37 -36 73 36 c40 20 102 44 138 53 80 22 249 25 303 5 47 -16 101 -62
133 -112 39 -62 45 -137 42 -534 l-3 -370 -167 -3 -168 -2 0 357 c0 352 0 357
-22 380 -26 28 -85 30 -198 5 l-75 -17 -3 -363 -2 -362 -168 2 -167 3 -5 363
c-5 345 -6 364 -24 378 -11 8 -37 14 -58 14 -50 0 -190 -29 -203 -41 -6 -6
-10 -142 -10 -362 l0 -352 -168 -3 -167 -2 2 507 3 508 145 0 145 0 9 -40 c5
-22 10 -41 11 -43 1 -1 41 16 89 39 48 22 115 47 149 55 76 17 198 12 252 -10z"/>
<path d="M2640 1950 c-27 -27 -27 -83 0 -110 16 -16 33 -20 93 -20 79 0 201
23 224 41 9 8 13 27 11 58 l-3 46 -152 3 c-142 2 -154 1 -173 -18z"/>
<path d="M7250 2761 c0 -5 -52 -10 -116 -13 -79 -3 -118 -8 -124 -17 -5 -9
-10 -10 -14 -2 -11 17 -113 14 -120 -4 -5 -13 23 -15 214 -15 144 0 221 4 225
11 9 14 -24 49 -47 49 -10 0 -18 -4 -18 -9z"/>
<path d="M982 1911 l4 -131 -38 -37 c-21 -20 -38 -43 -38 -49 0 -7 -6 -15 -12
-17 -10 -4 -10 -6 0 -6 6 -1 12 -12 12 -26 0 -14 5 -25 11 -25 6 0 22 -9 36
-20 51 -40 52 -38 50 207 -2 175 -5 227 -15 231 -10 3 -12 -23 -10 -127z"/>
<path d="M9195 1420 c-3 -5 -30 -11 -58 -12 -40 -1 -44 -2 -17 -5 19 -3 39 -9
45 -14 12 -12 528 -12 541 0 5 5 18 11 29 14 11 3 -1 5 -27 6 -27 0 -48 6 -48
11 0 6 -83 10 -229 10 -143 0 -232 -4 -236 -10z"/>
<path d="M10930 1420 c0 -5 -14 -10 -32 -10 -31 0 -31 -1 -15 -17 16 -16 40
-18 206 -18 126 0 196 4 212 12 13 7 33 14 44 16 15 4 13 5 -7 6 -15 0 -30 6
-33 11 -4 6 -78 10 -191 10 -116 0 -184 -4 -184 -10z"/>
<path d="M5040 830 c0 -5 -12 -10 -28 -10 -41 0 -72 -26 -72 -61 l0 -29 -90 0
c-49 0 -112 -5 -140 -11 -39 -8 -57 -8 -80 3 -17 7 -30 16 -30 20 0 5 -20 8
-45 8 -25 0 -45 -4 -45 -9 0 -17 -87 -33 -146 -26 -119 13 -315 16 -329 5 -24
-20 -109 -23 -167 -6 -31 9 -66 16 -77 16 -12 0 -21 5 -21 10 0 6 -20 10 -45
10 -25 0 -45 -3 -45 -8 0 -18 -141 -56 -157 -42 -13 11 -87 30 -117 30 -14 0
-26 5 -26 10 0 25 -74 8 -120 -26 -8 -6 -31 -14 -51 -18 -36 -6 -38 -8 -54
-68 -2 -5 -3 -12 -4 -18 0 -5 -8 -10 -17 -10 -32 0 -42 -26 -35 -97 0 -6 14
-15 29 -21 30 -10 34 -23 26 -84 -4 -29 -10 -38 -25 -38 -14 0 -19 -7 -19 -25
0 -15 6 -25 14 -25 8 0 24 -16 36 -34 27 -44 59 -50 236 -42 71 3 145 5 164 4
19 -1 249 -1 510 -1 261 1 509 1 550 0 41 -1 168 -1 283 0 122 1 207 -2 207
-8 0 -5 7 -9 15 -9 8 0 15 4 15 9 0 14 84 22 130 12 41 -9 158 4 170 20 3 3
15 9 28 13 12 4 22 12 22 17 0 10 50 -18 61 -34 6 -8 418 -21 612 -19 93 1 84
1 271 -4 100 -3 173 -1 179 5 5 5 21 6 38 1 16 -5 208 -9 427 -9 399 0 508 7
525 36 4 7 15 13 22 13 8 0 15 6 15 14 0 8 5 16 12 18 9 3 9 12 0 38 -7 18
-12 48 -12 66 0 30 -3 34 -37 40 -21 4 -41 9 -46 11 -8 5 58 53 73 53 6 0 10
18 10 40 0 35 -4 41 -36 56 -23 11 -41 29 -50 51 -11 26 -20 33 -42 33 -15 0
-33 5 -39 11 -6 6 -38 13 -72 16 -33 3 -61 10 -61 14 0 5 -16 9 -35 9 -23 0
-41 7 -52 20 -10 11 -27 20 -39 20 -12 0 -24 5 -26 11 -2 6 -25 13 -51 16 -26
3 -50 10 -53 14 -7 12 -134 12 -134 0 0 -5 -8 -12 -17 -15 -27 -9 -65 -33 -72
-44 -10 -16 -69 -42 -94 -42 -12 0 -28 -5 -35 -12 -16 -16 -306 -12 -344 5
-15 6 -28 15 -28 19 0 5 -7 8 -15 8 -8 0 -15 -4 -15 -10 0 -5 -5 -10 -11 -10
-6 0 -24 -9 -39 -20 -25 -18 -34 -19 -79 -9 -28 6 -53 15 -57 20 -3 5 -16 9
-30 9 -13 0 -24 5 -24 10 0 6 -13 10 -30 10 -16 0 -30 -3 -30 -8 0 -24 -142
-41 -180 -22 -11 6 -29 15 -40 20 -11 6 -27 10 -35 10 -8 0 -15 -4 -15 -10 0
-5 -13 -10 -30 -10 -16 0 -30 -4 -30 -10 0 -5 -18 -10 -40 -10 -52 0 -162 -58
-160 -85 2 -40 -2 -75 -9 -71 -5 4 -8 18 -6 32 3 30 -18 54 -48 54 -14 0 -28
11 -39 30 -10 17 -25 30 -37 30 -11 0 -33 11 -49 25 -17 14 -34 25 -38 25 -5
0 -27 16 -49 35 -22 19 -50 35 -62 35 -13 0 -23 5 -23 10 0 6 -22 10 -50 10
-27 0 -50 -4 -50 -10z m50 -148 c0 -43 3 -81 6 -84 3 -4 22 5 41 18 47 32 108
32 154 1 49 -33 62 -67 62 -166 0 -162 -1 -171 -23 -171 -19 0 -20 7 -20 121
0 69 -5 130 -11 142 -38 75 -151 77 -191 4 -7 -12 -15 -76 -18 -142 -4 -98 -8
-120 -20 -120 -13 0 -15 34 -18 238 -2 232 -2 237 18 237 18 0 20 -6 20 -78z
m-1655 -56 c34 -15 71 -68 60 -86 -11 -18 -35 -10 -46 14 -13 28 -48 46 -87
46 -33 -1 -57 -18 -66 -47 -10 -32 21 -58 93 -79 76 -21 111 -51 111 -97 0
-78 -102 -121 -195 -83 -28 12 -65 58 -65 81 0 16 39 1 63 -25 47 -50 135 -40
152 17 9 30 -16 49 -100 78 -77 26 -105 52 -105 99 0 38 15 60 55 81 38 19 86
19 130 1z m379 -6 c58 -29 80 -64 81 -125 l0 -50 -137 -3 -138 -3 0 -25 c0
-16 13 -39 34 -60 28 -28 42 -34 76 -34 49 0 75 12 113 53 20 20 32 26 39 19
16 -16 0 -50 -39 -80 -31 -23 -46 -27 -103 -27 -58 0 -71 4 -104 29 -51 39
-69 84 -64 163 5 75 26 109 88 141 55 27 101 28 154 2z m393 -1 c24 -11 43
-25 43 -30 0 -5 5 -9 10 -9 6 0 10 12 10 26 0 21 4 25 23 22 22 -3 22 -6 24
-163 2 -88 -1 -166 -5 -173 -13 -20 -42 -3 -42 24 0 13 -4 24 -10 24 -5 0 -10
-4 -10 -10 0 -5 -19 -19 -42 -31 -75 -38 -159 -16 -212 55 -17 22 -21 42 -21
106 0 72 2 81 31 117 51 63 126 79 201 42z m373 1 c0 -11 -8 -23 -17 -26 -55
-18 -75 -29 -84 -46 -6 -11 -12 -71 -14 -133 -3 -118 -7 -135 -31 -135 -12 0
-14 29 -14 175 0 171 0 175 21 175 12 0 23 -8 26 -19 5 -18 7 -18 40 5 44 30
73 31 73 4z m293 6 c36 -14 87 -69 87 -92 0 -26 -31 -14 -70 27 -38 40 -41 41
-91 37 -73 -7 -111 -46 -117 -121 -8 -99 39 -157 129 -157 36 0 48 6 80 40 63
66 98 44 39 -24 -37 -42 -87 -60 -147 -53 -136 15 -197 189 -106 298 47 56
127 74 196 45z m797 -12 c0 -19 13 -18 52 6 56 34 147 19 181 -31 l16 -22 32
31 c77 75 201 44 229 -57 14 -50 13 -234 -1 -248 -6 -6 -18 -9 -25 -6 -11 4
-14 33 -14 130 0 124 0 125 -29 154 -49 48 -129 36 -163 -24 -7 -12 -15 -74
-18 -142 -4 -98 -8 -120 -20 -120 -12 0 -16 23 -20 126 -5 127 -10 144 -50
176 -8 7 -32 13 -53 13 -85 0 -109 -41 -114 -194 -3 -108 -10 -135 -32 -122
-17 11 -15 343 2 349 16 6 27 -1 27 -19z m918 -159 c-2 -123 -6 -169 -15 -172
-7 -3 -18 8 -23 23 l-11 27 -24 -23 c-35 -33 -118 -39 -162 -11 -59 37 -67 60
-67 200 -1 123 -1 126 22 129 22 3 22 2 22 -113 0 -159 20 -195 108 -195 50 0
88 29 102 78 5 20 10 81 10 134 0 68 4 98 13 101 6 2 15 1 20 -2 4 -4 6 -83 5
-176z m282 170 c54 -28 82 -95 40 -95 -11 0 -20 5 -20 10 0 6 -11 22 -25 35
-43 44 -135 24 -135 -29 0 -32 24 -50 101 -75 90 -30 121 -68 100 -125 -21
-54 -125 -85 -184 -55 -36 19 -67 51 -67 71 0 27 29 22 60 -12 22 -23 37 -30
67 -30 48 0 83 23 83 55 0 30 -26 48 -100 69 -68 19 -104 54 -104 100 0 40 17
64 59 82 40 18 90 17 125 -1z m550 -15 c32 -23 64 -73 53 -84 -14 -13 -42 -5
-48 15 -16 50 -107 74 -165 44 -83 -43 -83 -210 1 -252 59 -30 148 -5 164 47
8 26 45 27 45 1 0 -27 -39 -71 -76 -87 -85 -35 -182 -2 -221 76 -68 133 24
280 164 267 31 -3 65 -14 83 -27z m-350 -149 c0 -134 -3 -170 -14 -174 -30
-12 -36 16 -36 173 0 86 3 160 7 163 3 4 15 7 25 7 17 0 18 -12 18 -169z"/>
<path d="M3681 587 c-27 -14 -56 -51 -66 -84 -6 -23 -6 -23 119 -23 139 0 141
1 111 60 -27 53 -108 76 -164 47z"/>
<path d="M4074 581 c-33 -20 -64 -82 -64 -127 0 -39 37 -102 70 -119 90 -47
190 18 190 124 0 110 -107 176 -196 122z"/>
<path d="M2680 630 c-12 -8 -15 -36 -13 -162 1 -99 5 -154 12 -156 6 -2 11
-10 11 -18 0 -8 7 -14 15 -14 9 0 18 -7 21 -15 4 -8 24 -18 45 -21 21 -4 39
-10 39 -14 0 -4 32 -10 71 -12 54 -3 73 -8 80 -21 7 -11 23 -17 49 -17 21 0
41 -6 43 -12 4 -10 6 -10 6 0 1 6 13 12 29 12 l27 0 -29 15 c-15 8 -48 15 -72
15 -32 0 -44 4 -44 15 0 12 -13 15 -57 15 -62 0 -90 11 -79 29 4 6 2 11 -3 11
-6 0 -11 18 -11 40 0 27 -5 43 -15 46 -8 4 -15 12 -15 18 0 7 -14 25 -31 42
-27 26 -30 34 -29 84 3 75 2 82 -18 107 -12 16 -21 20 -32 13z"/>
<path d="M6020 200 c0 -5 -21 -10 -47 -10 -43 0 -45 -1 -27 -15 22 -17 179
-21 189 -5 8 12 45 13 45 1 0 -5 11 -12 25 -15 14 -4 25 -14 25 -23 0 -13 8
-15 41 -10 48 6 45 5 54 40 l7 27 -105 0 c-60 0 -109 4 -112 10 -3 6 -26 10
-51 10 -24 0 -44 -4 -44 -10z"/>
</g>
</svg>
